<svg width="260" height="260" viewBox="0 0 260 260" fill="none" xmlns="http://www.w3.org/2000/svg">
<path d="M30.0884 29.021C30.3174 28.082 30.4944 27.523 30.4944 27.498L31.4594 27.828C31.4594 27.853 31.2814 28.361 31.0784 29.25L30.0884 29.021Z" fill="#87C0F4"/>
<path d="M16.579 221.482L16.554 220.467C17.5422 220.427 18.5263 220.317 19.499 220.138L19.677 221.128C18.6565 221.339 17.6189 221.458 16.577 221.483L16.579 221.482ZM13.456 221.282C12.4087 221.09 11.3969 220.739 10.456 220.241L10.938 219.353C11.7944 219.794 12.7093 220.11 13.655 220.293L13.455 221.282H13.456ZM22.749 220.394H22.649L22.369 219.429L22.446 219.403C23.303 219.133 24.174 218.826 25.188 218.438L25.569 219.378C24.815 219.678 23.814 220.066 22.751 220.394H22.749ZM7.92204 218.282C7.20077 217.505 6.6013 216.623 6.14404 215.667L7.05804 215.211C7.48102 216.08 8.02844 216.882 8.68304 217.593L7.92204 218.278V218.282ZM28.336 218.028L27.854 217.141C28.7131 216.655 29.5438 216.121 30.342 215.541L30.951 216.354C30.1146 216.966 29.2413 217.525 28.336 218.029V218.028ZM33.313 214.372L32.603 213.636C33.339 212.927 34.012 212.221 34.66 211.478L35.421 212.139C34.7579 212.919 34.055 213.665 33.315 214.373L33.313 214.372ZM37.35 209.75L36.539 209.141C37.019 208.485 37.65 207.614 38.265 206.678L39.103 207.237C38.55 208.078 37.955 208.963 37.351 209.75H37.35ZM40.778 204.672L39.916 204.139C40.381 203.395 40.881 202.572 41.49 201.55L42.353 202.058C41.83 202.958 41.33 203.792 40.779 204.673L40.778 204.672ZM43.878 199.441L42.99 198.934C43.324 198.354 43.652 197.761 43.999 197.134C44.1517 196.857 44.3067 196.578 44.464 196.295L45.352 196.777C44.823 197.756 44.352 198.631 43.88 199.442L43.878 199.441ZM46.823 194.135L45.936 193.653C46.392 192.791 46.879 191.894 47.383 190.986L48.271 191.468C47.777 192.358 47.29 193.254 46.824 194.134L46.823 194.135ZM49.692 188.802L48.805 188.32C49.013 187.927 49.2254 187.53 49.442 187.127C49.684 186.675 49.959 186.163 50.227 185.654L51.115 186.136C50.874 186.579 50.636 187.031 50.405 187.467C50.174 187.903 49.936 188.354 49.693 188.801L49.692 188.802ZM52.586 183.496L51.724 182.938C52.2919 182.061 52.9378 181.237 53.654 180.476L54.39 181.161C53.7289 181.891 53.1269 182.672 52.59 183.497L52.586 183.496ZM56.547 179.103L55.888 178.342L56.074 178.182C56.745 177.607 57.438 177.012 58.249 176.382L58.883 177.169C57.983 177.869 57.246 178.478 56.547 179.098V179.103ZM61.27 175.371L60.661 174.559C60.967 174.341 61.286 174.108 61.625 173.859H61.631C62.073 173.537 62.575 173.173 63.123 172.784L63.707 173.622C62.779 174.281 61.955 174.866 61.271 175.373L61.27 175.371ZM66.196 171.871L65.612 171.034C66.021 170.74 66.439 170.444 66.844 170.157C67.249 169.87 67.67 169.572 68.075 169.281L68.658 170.119C68.242 170.419 67.817 170.719 67.405 171.011L67.392 171.021C66.998 171.3 66.592 171.588 66.192 171.871H66.196ZM71.144 168.313L70.535 167.502C71.28 166.954 71.965 166.428 72.627 165.919L72.947 165.673L73.582 166.486C72.782 167.086 71.99 167.667 71.145 168.313H71.144ZM75.944 164.53L75.285 163.743C75.991 163.151 76.669 162.543 77.324 161.96L77.545 161.76L78.23 162.496C77.467 163.232 76.698 163.915 75.946 164.527L75.944 164.53ZM80.439 160.391L79.704 159.681C80.492 158.865 81.156 158.143 81.735 157.472L82.496 158.132C81.79 158.952 81.118 159.69 80.44 160.391H80.439ZM84.4 155.719L83.588 155.135C84.139 154.369 84.701 153.51 85.213 152.647L86.076 153.155C85.5656 154.04 85.0064 154.895 84.401 155.718L84.4 155.719ZM203.71 151.073H203.024V150.057H203.396C204.206 150.057 205.144 150.057 206.02 150.007L206.071 151.022H206.061C205.302 151.048 204.518 151.074 203.708 151.074L203.71 151.073ZM199.978 150.945C199.036 150.897 198.086 150.804 197.078 150.706L196.929 150.691L197.029 149.676C197.886 149.762 198.741 149.829 199.567 149.894L200.025 149.93L199.975 150.944L199.978 150.945ZM209.144 150.793L209.044 149.779C209.968 149.686 210.944 149.545 212.014 149.347L212.192 150.337C211.185 150.542 210.167 150.694 209.144 150.793V150.793ZM87.521 150.393L86.582 149.987C86.9896 149.085 87.3455 148.161 87.648 147.219L88.613 147.524C88.242 148.637 87.884 149.575 87.522 150.392L87.521 150.393ZM193.882 150.342C192.871 150.212 191.804 150.025 190.863 149.86L191.039 148.87C192.039 149.045 193.039 149.199 194.01 149.327L193.883 150.341L193.882 150.342ZM215.182 149.708L214.928 148.719C215.928 148.464 216.878 148.127 217.771 147.805L218.126 148.745C217.126 149.122 216.139 149.445 215.182 149.71V149.708ZM187.862 149.327C186.862 149.127 185.862 148.891 184.897 148.668H184.892L185.121 147.678C186.038 147.89 187.076 148.13 188.067 148.312L187.867 149.327H187.862ZM181.92 147.927L181.591 147.841C180.737 147.617 179.854 147.385 178.976 147.115L179.255 146.15L179.581 146.242C180.473 146.495 181.315 146.733 182.174 146.942L181.92 147.931V147.927ZM220.946 147.47L220.489 146.583C221.371 146.127 222.219 145.61 223.028 145.034L223.612 145.872C222.753 146.453 221.864 146.987 220.947 147.472L220.946 147.47ZM176.055 146.251C175.166 145.971 174.155 145.651 173.162 145.312L173.492 144.347C174.452 144.676 175.426 144.984 176.386 145.261L176.056 146.25L176.055 146.251ZM89.423 144.551L88.433 144.323C88.615 143.484 88.792 142.549 88.992 141.378L90.008 141.53C89.843 142.518 89.657 143.566 89.424 144.55L89.423 144.551ZM170.292 144.351C169.353 144.022 168.373 143.661 167.425 143.312L167.779 142.372C168.794 142.756 169.75 143.107 170.623 143.413L170.293 144.351H170.292ZM225.999 143.92L225.314 143.185C226.041 142.513 226.712 141.782 227.32 141.001L228.108 141.636C227.459 142.445 226.755 143.208 226.001 143.92H225.999ZM164.579 142.22L161.761 141.077L162.142 140.137L162.206 140.162C163.106 140.528 164.037 140.906 164.935 141.28L164.58 142.219L164.579 142.22ZM158.942 139.858C157.991 139.447 157.077 139.04 156.149 138.615L156.581 137.701C157.042 137.901 157.512 138.118 157.966 138.323C158.42 138.528 158.891 138.741 159.348 138.944L158.943 139.857L158.942 139.858ZM229.861 139.093L228.999 138.585C229.493 137.729 229.943 136.847 230.345 135.944L231.285 136.351C230.885 137.223 230.419 138.12 229.863 139.092L229.861 139.093ZM90.391 138.509L89.376 138.409V138.403C89.476 137.382 89.576 136.325 89.655 135.388L90.67 135.488C90.602 136.304 90.516 137.204 90.425 138.157L90.391 138.509V138.509ZM153.41 137.341C152.522 136.921 151.644 136.483 150.67 135.996L151.126 135.082C152.002 135.532 152.917 135.965 153.802 136.382L153.838 136.399L153.406 137.338L153.41 137.341ZM147.951 134.624C147.63 134.455 147.312 134.286 146.997 134.117C146.397 133.799 145.837 133.499 145.26 133.202L145.743 132.314C146.693 132.83 147.548 133.294 148.409 133.736L147.952 134.623L147.951 134.624ZM232.351 133.431L231.387 133.131C231.687 132.182 231.942 131.217 232.148 130.262L233.139 130.462C232.915 131.552 232.601 132.621 232.352 133.431H232.351ZM90.951 132.466L89.937 132.366C90.077 131.08 90.202 130.141 90.343 129.319L91.334 129.496C91.234 130.144 91.095 131.155 90.953 132.466H90.951ZM142.621 131.705C141.678 131.166 140.828 130.679 139.981 130.182L140.489 129.319C141.303 129.812 142.178 130.313 143.024 130.797L143.104 130.843L142.622 131.705H142.621ZM137.366 128.582C136.554 128.082 135.692 127.525 134.802 126.932L135.361 126.094C135.674 126.294 135.993 126.5 136.301 126.7C136.822 127.037 137.359 127.385 137.901 127.72L137.369 128.582H137.366ZM233.622 127.414L232.607 127.314C232.692 126.414 232.734 125.614 232.734 124.877V124.343L233.75 124.318V124.877C233.75 125.621 233.71 126.427 233.623 127.415L233.622 127.414ZM92.022 126.576L91.058 126.297C91.3497 125.297 91.7295 124.326 92.193 123.393L93.107 123.849C92.6636 124.72 92.2985 125.629 92.016 126.565L92.022 126.576ZM132.266 125.231C131.334 124.6 130.447 123.95 129.778 123.454L130.387 122.641C131.175 123.225 132.026 123.819 132.85 124.393L132.267 125.231H132.266ZM127.366 121.6C126.624 121.015 125.874 120.394 125.005 119.645L125.666 118.884C126.342 119.484 127.077 120.084 127.855 120.715L127.976 120.815L127.367 121.602L127.366 121.6ZM94.739 121.473L93.978 120.813C94.5754 120.132 95.2386 119.511 95.958 118.96L96.288 118.705L96.897 119.518L96.567 119.772C95.8872 120.257 95.2731 120.829 94.74 121.472L94.739 121.473ZM232.476 121.393C232.329 120.414 232.118 119.445 231.844 118.493L232.809 118.213C233.088 119.208 233.317 120.217 233.494 121.235L232.48 121.387L232.476 121.393ZM99.327 117.71L98.743 116.873C99.623 116.241 100.548 115.619 101.257 115.147L101.816 115.985C101.502 116.204 101.183 116.423 100.874 116.634C100.363 116.984 99.836 117.345 99.328 117.71H99.327ZM122.738 117.558C122.023 116.843 121.273 116.074 120.631 115.299L121.418 114.639C122.027 115.382 122.754 116.127 123.449 116.822L122.739 117.557L122.738 117.558ZM230.8 115.704C230.395 114.801 229.927 113.928 229.4 113.09L230.264 112.556C230.807 113.437 231.29 114.353 231.711 115.298L230.798 115.703L230.8 115.704ZM104.355 114.384L103.823 113.522C104.679 112.994 105.573 112.482 106.438 111.988L106.463 111.973L106.971 112.862C106.055 113.385 105.155 113.915 104.361 114.382L104.355 114.384ZM118.803 112.784C118.536 112.344 118.298 111.886 118.092 111.414C117.87 110.887 117.685 110.373 117.533 109.941L118.498 109.612L118.54 109.726C118.701 110.162 118.868 110.613 119.032 111.033C119.218 111.46 119.43 111.876 119.666 112.278L118.804 112.785L118.803 112.784ZM109.611 111.439L109.154 110.551C110.015 110.109 110.854 109.687 111.871 109.18L112.303 110.094C111.442 110.511 110.537 110.963 109.612 111.439H109.611ZM227.703 110.652C227.084 109.88 226.424 109.143 225.724 108.444L226.435 107.733C227.167 108.46 227.854 109.232 228.492 110.043L227.705 110.652H227.703ZM115.044 108.823L114.638 107.884C115.409 107.536 116.193 107.207 116.951 106.889L117 106.868L116.695 106.944C116.505 106.044 116.295 104.991 116.162 103.923L117.177 103.796C117.331 104.825 117.51 105.816 117.711 106.742L117.482 106.792L117.837 107.655L117.77 107.682C116.87 108.048 115.937 108.427 115.044 108.823V108.823ZM120.655 106.563L120.3 105.599C121.264 105.234 122.275 104.889 123.167 104.585L123.499 105.549L123.441 105.569C122.511 105.887 121.551 106.216 120.656 106.564L120.655 106.563ZM223.487 106.463C222.77 105.889 221.959 105.3 221.076 104.712L221.635 103.874C222.552 104.494 223.388 105.109 224.123 105.702L223.489 106.463H223.487ZM126.368 104.635L126.068 103.671C126.868 103.419 127.691 103.182 128.487 102.952L128.987 102.807L129.266 103.797C128.173 104.085 127.226 104.358 126.373 104.635H126.368ZM218.536 103.163C217.7 102.72 216.795 102.254 215.845 101.843L216.252 100.929C217.36 101.439 218.231 101.875 218.994 102.301L218.537 103.163H218.536ZM132.182 103.011L131.928 102.021C132.758 101.803 133.635 101.601 134.482 101.406L134.899 101.306L135.128 102.297L135.035 102.318C134.093 102.536 133.118 102.761 132.183 103.007L132.182 103.011ZM138.076 101.692L137.876 100.701C138.91 100.49 139.927 100.308 140.876 100.143L141.053 101.133C140.064 101.285 139.059 101.491 138.087 101.691L138.076 101.692ZM115.831 100.878C115.755 99.923 115.704 98.898 115.679 97.832L116.694 97.807C116.719 98.851 116.77 99.858 116.846 100.807L115.832 100.883L115.831 100.878ZM213.077 100.7C211.966 100.3 211.063 100 210.234 99.761L210.514 98.796L210.554 98.808C211.514 99.108 212.507 99.408 213.433 99.76L213.078 100.699L213.077 100.7ZM144.044 100.623L143.892 99.608C144.663 99.49 145.464 99.369 146.24 99.252L146.283 99.245L146.913 99.15L147.066 100.166C146.785 100.207 146.505 100.247 146.227 100.285C145.467 100.392 144.748 100.493 144.045 100.623H144.044ZM150.036 99.785L149.909 98.77C150.432 98.703 150.97 98.642 151.491 98.583C151.964 98.529 152.451 98.474 152.93 98.414L153.03 99.43C152.019 99.53 151.016 99.66 150.046 99.784H150.034L150.036 99.785ZM156.053 99.124L155.953 98.11C156.977 98.005 158.038 97.926 158.974 97.856L159.05 98.871C158.14 98.962 157.234 99.033 156.358 99.101L156.058 99.125L156.053 99.124ZM207.314 98.993C206.391 98.774 205.4 98.569 204.37 98.384L204.547 97.394C205.625 97.582 206.632 97.788 207.547 98.003L207.319 98.992L207.314 98.993ZM162.093 98.663L162.017 97.649C163.004 97.575 164.004 97.524 164.972 97.475H165.064L165.114 98.491H165.064C164.095 98.54 163.094 98.591 162.093 98.666V98.663ZM168.136 98.308L168.086 97.294C169.273 97.234 170.186 97.194 171.132 97.167L171.183 98.182C170.67 98.208 170.148 98.228 169.643 98.246H169.633C169.141 98.264 168.633 98.283 168.133 98.308H168.136ZM174.205 98.054L174.155 97.04C175.171 96.989 176.203 96.963 177.2 96.94L177.226 97.955C176.748 97.968 176.257 97.986 175.782 98.004C175.265 98.023 174.732 98.044 174.206 98.057L174.205 98.054ZM201.398 97.927C200.456 97.803 199.448 97.701 198.398 97.627L198.474 96.611C199.195 96.665 199.932 96.745 200.645 96.823H200.667C200.955 96.854 201.24 96.885 201.522 96.914L201.395 97.928L201.398 97.927ZM180.273 97.827L180.247 96.813C181.274 96.788 182.287 96.736 183.266 96.686L183.319 97.701L183.207 97.708C182.307 97.753 181.281 97.808 180.274 97.828L180.273 97.827ZM186.341 97.598L186.291 96.584C186.823 96.562 187.485 96.536 188.119 96.484C188.519 96.459 188.931 96.434 189.338 96.434L189.389 97.449C189.189 97.461 188.989 97.468 188.804 97.474C188.619 97.48 188.404 97.487 188.195 97.5C187.504 97.527 186.929 97.552 186.342 97.6L186.341 97.598ZM195.406 97.446C194.458 97.421 193.479 97.396 192.487 97.396H192.387V96.382H192.487C193.469 96.382 194.453 96.408 195.404 96.433H195.432L195.407 97.447L195.406 97.446ZM116.669 94.783H115.654C115.654 93.946 115.674 93.09 115.696 92.098V92.093L115.704 91.737L116.719 91.762C116.707 92.286 116.701 92.785 116.695 93.268V93.282C116.688 93.804 116.682 94.298 116.669 94.782V94.783ZM116.846 88.714L115.832 88.664V88.581C115.857 87.881 115.882 87.164 115.932 86.454L115.957 85.642L116.973 85.692L116.947 86.505C116.898 87.215 116.873 87.937 116.847 88.635V88.712L116.846 88.714ZM117.101 82.646L116.086 82.62C116.137 81.505 116.162 80.52 116.162 79.599L117.177 79.624C117.177 80.191 117.157 80.791 117.137 81.424V81.436C117.124 81.824 117.111 82.224 117.102 82.644L117.101 82.646ZM116.161 76.577C116.135 75.45 116.109 74.514 116.034 73.577L117.049 73.501C117.105 74.549 117.149 75.501 117.176 76.548L116.162 76.573L116.161 76.577ZM115.754 70.585C115.619 69.6029 115.433 68.6286 115.196 67.666L116.186 67.412C116.432 68.423 116.628 69.439 116.77 70.433L115.755 70.585H115.754ZM114.282 64.847C113.908 63.9431 113.449 63.0765 112.912 62.259L113.75 61.7C114.326 62.5745 114.819 63.5008 115.222 64.467L114.283 64.847H114.282ZM58.044 60.911H57.714C56.78 60.911 55.857 60.886 54.972 60.835L55.023 59.819C55.884 59.87 56.764 59.895 57.714 59.895H58.044V60.909V60.911ZM61.117 60.811L61.064 59.793C61.939 59.747 62.828 59.66 63.77 59.568L64.06 59.54L64.16 60.555L63.85 60.585C62.889 60.677 61.984 60.764 61.115 60.81L61.117 60.811ZM51.925 60.506C50.9078 60.3594 49.8996 60.1561 48.905 59.897L49.159 58.907C50.149 59.148 51.131 59.345 52.079 59.491L51.927 60.505L51.925 60.506ZM67.185 60.176L67.058 59.162C67.93 59.044 68.91 58.895 70.058 58.705L70.21 59.695C69.228 59.878 68.24 60.035 67.19 60.177L67.185 60.176ZM111.035 60.076C110.311 59.4333 109.52 58.8716 108.674 58.401L109.156 57.513C110.079 58.0095 110.94 58.6137 111.721 59.313L111.036 60.074L111.035 60.076ZM73.177 59.213L73 58.224L74.485 57.957L75.97 57.69L76.148 58.681C75.059 58.881 74.087 59.055 73.178 59.214L73.177 59.213ZM45.933 58.984C44.9693 58.6174 44.0283 58.1936 43.115 57.715L43.597 56.826C44.4702 57.2837 45.3691 57.6907 46.289 58.045L45.934 58.984H45.933ZM79.169 58.121L78.992 57.132L80.513 56.861H80.519L81.989 56.599L82.166 57.59C81.284 57.744 80.408 57.901 79.56 58.053H79.553L79.171 58.122L79.169 58.121ZM105.957 57.283C105.008 56.9869 104.041 56.7495 103.063 56.572L103.241 55.582C104.255 55.7757 105.257 56.0298 106.241 56.343L105.962 57.282L105.957 57.283ZM85.136 57.083L84.984 56.069C85.604 55.969 86.2 55.879 86.776 55.795H86.786C87.207 55.734 87.604 55.676 88.005 55.613L88.132 56.629C87.075 56.768 86.025 56.938 85.132 57.085L85.136 57.083ZM91.128 56.296L91.028 55.281C92.106 55.181 93.128 55.103 94.075 55.052L94.126 56.068C93.184 56.117 92.205 56.192 91.126 56.297L91.128 56.296ZM100.116 56.144C99.15 56.067 98.17 56.017 97.116 55.991V54.97C98.1423 54.9677 99.168 55.0185 100.189 55.122L100.113 56.137L100.116 56.144ZM40.473 56.118C39.631 55.548 38.802 54.925 38.011 54.265L38.671 53.477C39.4348 54.1182 40.2315 54.7191 41.058 55.277L40.475 56.114L40.473 56.118ZM35.773 52.132C35.0717 51.379 34.419 50.5821 33.819 49.746L34.657 49.162C35.2256 49.9694 35.8537 50.7332 36.536 51.447L35.774 52.132H35.773ZM32.168 47.105C31.6823 46.1956 31.2583 45.2544 30.899 44.288L31.864 43.932C32.1965 44.8687 32.6041 45.777 33.083 46.648L32.17 47.105H32.168ZM30.036 41.31C29.8009 40.3068 29.6315 39.2893 29.529 38.264L30.545 38.164C30.6394 39.1471 30.8004 40.1227 31.027 41.084L30.037 41.312L30.036 41.31ZM30.391 35.166H29.377C29.3846 34.1394 29.4436 33.1137 29.554 32.093L30.57 32.22C30.479 33.085 30.42 34.048 30.392 35.165L30.391 35.166Z" fill="#87C0F4"/>
<path d="M4.82422 211.047L5.84022 210.996C5.87469 211.476 5.95132 211.952 6.06922 212.418L5.07922 212.618C4.87522 211.682 4.84922 211.072 4.82422 211.047Z" fill="#87C0F4"/>
<path d="M118.574 67.285C106.894 73.125 105.374 85.82 104.355 93.437C103.336 101.054 99.0231 111.465 92.4221 117.054C85.8211 122.643 80.2341 128.731 77.6951 142.188C75.1561 155.645 78.7111 165.04 74.9021 177.227C71.0931 189.414 59.1601 206.172 59.9221 219.883C60.6841 233.594 72.3631 232.071 72.3631 232.071H227.246C231.744 219.216 232.1 205.275 228.262 192.208C222.676 173.165 205.918 170.372 201.348 145.489C198.987 132.641 199.317 128.989 189.922 117.052C180.248 104.763 173.672 104.611 169.356 93.439C165.04 82.267 162.501 61.193 136.856 67.539C136.855 67.539 130.254 61.445 118.574 67.285Z" fill="#1F1F39"/>
<path d="M208.939 231.944H169.099L159.199 193.477L201.424 186.799L208.939 231.944Z" fill="#F9D2DD"/>
<path d="M34.2778 206.934C26.1518 205.407 12.9518 197.031 14.4728 179.258C15.9938 161.485 49.2578 109.18 49.2578 109.18C49.2578 109.18 43.9258 103.086 46.2108 95.723C48.4958 88.36 56.6218 86.328 61.9518 86.074C65.0342 85.8981 68.1242 86.2416 71.0928 87.09L82.7728 70.59C82.7728 70.59 85.3128 67.285 88.3598 68.807C91.4068 70.329 85.3128 80.233 85.3128 80.233L79.7268 91.66C79.7268 91.66 78.7108 101.56 76.4268 107.148C74.1428 112.736 72.8718 114.007 72.8718 114.007L60.6838 154.121L74.6518 150.313L61.9518 202.871C61.9518 202.871 42.4028 208.457 34.2778 206.934Z" fill="#FFEBF0"/>
<path d="M61.9541 202.872L74.6491 150.313L62.1571 153.713L49.7661 205.665C58.3231 204.547 61.9541 202.872 61.9541 202.872Z" fill="#F9ACC0"/>
<path d="M159.199 193.477L162.699 207.137L205.99 214.323L201.424 186.799L159.199 193.477Z" fill="#F9ACC0"/>
<path d="M205.918 206.172C205.918 206.172 200.078 148.535 171.133 139.649C142.188 130.763 122.133 133.555 112.988 136.349C103.843 139.143 64.7462 151.582 64.7462 151.582L56.3672 207.187L78.9672 204.902L75.1562 232.07H175.246C175.246 232.07 173.164 216.07 170.625 206.17L205.918 206.172Z" fill="#3D5CFF"/>
<path d="M205.918 206.172C205.918 206.172 200.078 148.535 171.133 139.649C142.188 130.763 122.133 133.555 112.988 136.349C103.843 139.143 64.7462 151.582 64.7462 151.582L56.3672 207.187L78.9672 204.902L75.1562 232.07H175.246C175.246 232.07 173.164 216.07 170.625 206.17L205.918 206.172Z" fill="#3D5CFF"/>
<path d="M200.357 181.949C196.473 177.58 186.139 167.4 173.723 166.816C163.465 166.334 160.923 160.037 158.666 154.502C157.219 150.947 155.873 147.57 152.75 145.666C147.088 142.213 141.273 144.066 133.961 146.402C130.568 147.556 127.109 148.505 123.602 149.246C117.025 150.541 113.014 147.57 110.779 144.853C109.294 143.002 108.182 140.881 107.504 138.607C107.486 138.544 107.481 138.477 107.489 138.412C107.497 138.347 107.519 138.284 107.552 138.227C107.585 138.17 107.629 138.12 107.682 138.081C107.735 138.042 107.795 138.014 107.859 137.998C107.922 137.98 107.989 137.975 108.054 137.983C108.12 137.991 108.183 138.012 108.24 138.045C108.297 138.079 108.346 138.123 108.386 138.176C108.425 138.229 108.453 138.289 108.469 138.353C109.112 140.49 110.165 142.482 111.569 144.218C114.569 147.849 118.526 149.195 123.401 148.255C126.868 147.505 130.292 146.564 133.656 145.437C140.943 143.101 147.24 141.095 153.286 144.802C156.686 146.884 158.186 150.566 159.634 154.12C161.868 159.655 164.179 165.368 173.802 165.8C186.596 166.38 197.186 176.82 201.144 181.263C201.189 181.312 201.223 181.37 201.245 181.433C201.267 181.496 201.276 181.563 201.271 181.629C201.266 181.696 201.248 181.761 201.217 181.82C201.187 181.879 201.144 181.932 201.093 181.974C200.994 182.062 200.87 182.115 200.738 182.126C200.665 182.129 200.592 182.115 200.526 182.084C200.46 182.053 200.402 182.007 200.357 181.949V181.949Z" fill="#EAEAFF"/>
<path d="M124.871 227.525C124.414 215.845 118.371 214.144 111.389 212.189C108.139 211.275 104.762 210.335 101.842 208.279C95.4181 203.785 96.1801 199.037 97.0691 193.527C97.6008 190.724 97.8308 187.873 97.7551 185.021C97.3231 176.896 90.7731 174.712 81.7341 171.721C80.0341 171.162 78.2551 170.553 76.4271 169.893C71.5761 168.136 68.9861 164.074 68.9341 158.183C68.9425 155.353 69.3971 152.543 70.2811 149.855L71.2461 150.185C70.3903 152.765 69.9531 155.466 69.9511 158.185C70.0271 163.669 72.3121 167.3 76.7811 168.925C78.5811 169.585 80.3611 170.169 82.0621 170.725C91.1521 173.746 98.3121 176.133 98.7941 184.944C98.8841 187.863 98.654 190.784 98.1081 193.653C97.2191 199.239 96.5851 203.301 102.475 207.415C105.268 209.37 108.543 210.284 111.717 211.173C118.777 213.155 125.455 215.007 125.934 227.449C125.983 228.928 126.119 230.403 126.34 231.867L125.274 232.045C125.053 230.547 124.918 229.038 124.871 227.525Z" fill="#EAEAFF"/>
<path d="M148.281 182.381C147.088 182.203 145.869 182 144.523 181.772C137.414 180.502 136.449 175.881 135.433 171.006C134.962 167.862 133.893 164.836 132.285 162.094C129.264 157.448 124.16 158.615 117.101 160.24C112.556 161.281 107.427 162.449 101.714 162.297C98.8172 162.285 95.985 161.441 93.5544 159.866C91.1237 158.29 89.1971 156.049 88.0038 153.41C86.6873 150.746 85.8698 147.863 85.5918 144.904L86.6078 144.828C86.8973 147.662 87.6883 150.421 88.9438 152.978C91.6348 158.335 95.9518 161.128 101.766 161.278C107.352 161.43 112.405 160.262 116.899 159.247C124.085 157.597 129.747 156.302 133.174 161.532C134.856 164.373 135.976 167.51 136.474 170.774C137.515 175.7 138.328 179.61 144.751 180.753C146.071 180.982 147.29 181.185 148.483 181.362C155.415 182.454 160.01 183.162 166.434 190.071L165.647 190.782C159.453 184.128 155.01 183.447 148.281 182.381Z" fill="#EAEAFF"/>
<path d="M109.18 94.961C105.625 98.008 107.656 104.355 112.48 106.133C117.304 107.911 118.574 106.641 118.574 106.641L116.289 94.453C115.215 93.738 113.934 93.3999 112.648 93.4919C111.361 93.5838 110.141 94.1006 109.18 94.961V94.961Z" fill="#F9ACC0"/>
<path d="M117.812 111.465C118.632 113.329 119.82 115.009 121.303 116.404C122.786 117.8 124.535 118.883 126.445 119.588C126.72 122.644 126.548 125.723 125.937 128.729C125.442 131.176 124.677 133.561 123.655 135.84C123.655 135.84 125.178 139.14 135.843 139.649C146.508 140.158 148.031 135.84 148.031 135.84C147.322 131.817 146.982 127.738 147.015 123.653C147.37 119.307 147.963 114.985 148.792 110.704C148.792 110.704 155.647 112.989 159.964 108.673C164.281 104.357 163.264 96.232 157.933 95.724C152.602 95.216 149.805 99.788 149.805 99.788C149.805 99.788 142.187 96.23 139.141 90.388C136.095 84.546 135.841 80.488 135.841 80.488C135.841 80.488 121.113 82.519 116.035 94.453C116.035 94.453 115.019 105.117 117.812 111.465Z" fill="#F9D2DD"/>
<path d="M123.779 101.055C123.293 100.999 122.848 100.755 122.54 100.376C122.231 99.9957 122.084 99.5101 122.129 99.0229C122.084 98.5359 122.232 98.0506 122.54 97.671C122.848 97.2914 123.293 97.0476 123.779 96.9919C124.265 97.0476 124.71 97.2914 125.018 97.671C125.327 98.0506 125.474 98.5359 125.429 99.0229C125.474 99.5101 125.327 99.9957 125.019 100.376C124.71 100.755 124.265 100.999 123.779 101.055V101.055Z" fill="#1F1F39"/>
<path d="M136.728 101.817C136.242 101.761 135.797 101.517 135.488 101.138C135.18 100.758 135.033 100.272 135.078 99.785C135.033 99.298 135.18 98.8127 135.489 98.4331C135.797 98.0535 136.242 97.8097 136.728 97.754C137.214 97.8097 137.659 98.0535 137.967 98.4331C138.275 98.8127 138.423 99.298 138.378 99.785C138.423 100.272 138.276 100.758 137.967 101.138C137.659 101.517 137.214 101.761 136.728 101.817V101.817Z" fill="#1F1F39"/>
<path d="M134.062 107.148C135.151 106.69 136.175 106.093 137.109 105.371C137.109 105.371 137.617 105.117 137.871 105.371C138.125 105.625 136.5 108.519 135.078 108.926C134.392 109.154 133.649 109.154 132.963 108.925C132.276 108.697 131.682 108.252 131.269 107.658C130.507 106.642 131.523 106.896 131.523 106.896C132.34 107.171 133.208 107.257 134.062 107.148V107.148Z" fill="#F95368"/>
<path d="M129.01 99.1C128.7 99.6222 128.445 100.175 128.249 100.75C128.167 101.013 128.133 101.288 128.149 101.563C128.149 101.639 128.174 101.69 128.174 101.741L128.25 101.941C128.307 102.073 128.373 102.2 128.45 102.322C128.629 102.556 128.86 102.746 129.124 102.878C129.387 103.01 129.678 103.081 129.973 103.084C129.66 103.181 129.326 103.19 129.008 103.109C128.669 103.032 128.365 102.845 128.145 102.576C128.031 102.442 127.93 102.298 127.845 102.144L127.745 101.915C127.715 101.842 127.69 101.74 127.665 101.639C127.613 101.291 127.639 100.937 127.741 100.6C127.953 99.98 128.262 99.3972 128.655 98.873C129.05 98.3665 129.502 97.9059 130 97.5L129.01 99.1Z" fill="#1F1F39"/>
<path d="M180.984 206.172C179.791 202.389 175.373 188.906 170.368 180.019C166.711 173.577 162.278 167.609 157.168 162.246C157.168 162.246 163.468 180.476 165.293 186.621C167.093 192.639 171.717 210.945 171.717 210.945C171.362 209.269 171.006 207.645 170.625 206.172H180.984Z" fill="#224BF4"/>
<path d="M136.449 92.879C136.947 92.6941 137.468 92.5829 137.998 92.549C138.539 92.5135 139.082 92.5813 139.598 92.749C140.128 92.8979 140.587 93.2308 140.893 93.688C140.427 93.5112 139.94 93.3929 139.445 93.336C138.973 93.2898 138.497 93.2814 138.023 93.311C137.539 93.3366 137.057 93.3873 136.578 93.463L135.078 93.692C135.485 93.3443 135.949 93.0693 136.449 92.879V92.879Z" fill="#1F1F39"/>
<path d="M121.19 91.279C122.52 91.1165 123.866 91.4197 124.998 92.137C125.281 92.3217 125.537 92.5437 125.76 92.797C125.988 93.0448 126.138 93.3538 126.192 93.686C126.008 93.4379 125.774 93.2305 125.506 93.077C125.243 92.9266 124.972 92.791 124.694 92.671C124.139 92.4505 123.571 92.2639 122.994 92.112C122.409 91.9776 121.814 91.8943 121.215 91.863C120.606 91.863 119.971 91.863 119.336 91.913C119.903 91.5748 120.534 91.3588 121.19 91.279V91.279Z" fill="#1F1F39"/>
<path d="M234.098 231.816V232.656H25.8979V231.816H234.098Z" fill="#1F1F39"/>
<path d="M67.1331 110.653C64.7906 108.458 63.2451 105.545 62.7401 102.375C62.3591 99.887 62.5121 96.358 64.0861 94.504C64.2575 94.2776 64.4753 94.0904 64.7248 93.9547C64.9743 93.819 65.2498 93.738 65.5331 93.717C66.8531 93.717 67.3331 94.707 68.1481 96.358C68.4021 96.891 68.7071 97.475 69.0621 98.158C70.5651 100.877 74.8261 105.168 74.8511 105.217C74.8744 105.24 74.8929 105.268 74.9055 105.298C74.9181 105.329 74.9246 105.362 74.9246 105.395C74.9246 105.428 74.9181 105.46 74.9055 105.491C74.8929 105.521 74.8744 105.549 74.8511 105.572C74.8278 105.595 74.8001 105.614 74.7696 105.626C74.7392 105.639 74.7065 105.646 74.6736 105.646C74.6406 105.646 74.608 105.639 74.5775 105.626C74.547 105.614 74.5194 105.595 74.4961 105.572C74.3181 105.397 70.1291 101.207 68.6051 98.417C68.2251 97.729 67.9451 97.117 67.6651 96.586C66.8531 94.91 66.4731 94.225 65.5081 94.225C65.0864 94.2799 64.7034 94.4987 64.4421 94.834C63.5271 95.901 62.6391 98.517 63.1971 102.299C63.6957 105.35 65.1858 108.153 67.4371 110.272C67.4626 110.293 67.4835 110.32 67.4986 110.349C67.5137 110.379 67.5227 110.411 67.5251 110.444C67.5274 110.477 67.523 110.511 67.5122 110.542C67.5014 110.573 67.4843 110.602 67.4621 110.627C67.4412 110.654 67.414 110.675 67.3829 110.688C67.3517 110.701 67.3177 110.706 67.2841 110.703C67.2299 110.702 67.1773 110.684 67.1331 110.653V110.653Z" fill="#1F1F39"/>
<path d="M55.9098 101.435C51.9748 100.115 51.9238 98.236 51.9238 98.16C51.9217 98.1261 51.9269 98.0921 51.9389 98.0604C51.951 98.0286 51.9696 97.9998 51.9936 97.9758C52.0176 97.9518 52.0465 97.9332 52.0782 97.9211C52.11 97.9091 52.1439 97.9039 52.1778 97.906C52.2451 97.906 52.3097 97.9327 52.3574 97.9803C52.405 98.028 52.4318 98.0926 52.4318 98.16C52.4318 98.185 52.5318 99.785 56.0628 100.978C57.1487 101.327 58.2962 101.441 59.4296 101.314C60.563 101.187 61.6568 100.822 62.6388 100.242C62.6671 100.224 62.6988 100.211 62.7321 100.205C62.7653 100.199 62.7994 100.199 62.8324 100.207C62.8654 100.214 62.8967 100.227 62.9244 100.246C62.9522 100.266 62.976 100.29 62.9943 100.318C63.0126 100.347 63.0251 100.379 63.0312 100.412C63.0373 100.445 63.0368 100.479 63.0297 100.512C63.0225 100.545 63.009 100.576 62.9898 100.604C62.9706 100.632 62.9461 100.656 62.9178 100.674C61.5791 101.417 60.0812 101.826 58.5508 101.867C57.6532 101.862 56.762 101.717 55.9098 101.435V101.435Z" fill="#1F1F39"/>
<path d="M139.648 120.098C135.331 121.202 130.804 121.185 126.496 120.047C126.719 122.954 126.532 125.877 125.938 128.731C125.862 129.086 125.786 129.416 125.709 129.721C129.054 129.77 132.359 128.993 135.332 127.461C141.68 124.16 142.695 119.336 142.695 119.336C141.666 119.533 140.649 119.787 139.648 120.098V120.098Z" fill="#F9ACC0"/>
<path d="M47.6032 156.584C47.5905 156.518 47.6044 156.449 47.6418 156.393C47.6792 156.337 47.7372 156.298 47.8032 156.284L64.5182 152.872C64.5845 152.859 64.6531 152.873 64.7092 152.911C64.7653 152.948 64.8045 153.006 64.8182 153.072C64.8309 153.138 64.8171 153.207 64.7797 153.263C64.7423 153.319 64.6843 153.358 64.6182 153.372L47.9122 156.787H47.8622C47.8017 156.791 47.7418 156.772 47.694 156.735C47.6462 156.698 47.6139 156.644 47.6032 156.584V156.584Z" fill="#1F1F39"/>
<path d="M131.901 121.24C130.561 121.178 129.232 120.965 127.94 120.605C127.408 120.463 126.884 120.293 126.369 120.098C126.306 120.073 126.256 120.025 126.227 119.963C126.199 119.902 126.195 119.832 126.217 119.768C126.242 119.705 126.29 119.654 126.352 119.626C126.413 119.597 126.483 119.593 126.547 119.615C127.055 119.803 127.572 119.964 128.096 120.098C129.354 120.451 130.649 120.655 131.955 120.707C135.186 120.864 138.419 120.443 141.501 119.463C141.565 119.441 141.635 119.445 141.696 119.473C141.758 119.501 141.806 119.552 141.831 119.615C141.853 119.679 141.849 119.749 141.821 119.81C141.793 119.872 141.742 119.92 141.679 119.945C138.925 120.84 136.044 121.285 133.148 121.265C132.742 121.266 132.311 121.266 131.901 121.24Z" fill="#1F1F39"/>
<path d="M115.654 105.244C115.469 103.755 114.957 102.325 114.156 101.057C112.709 98.4141 111.49 97.8811 111.49 97.8571C111.458 97.8458 111.429 97.8278 111.405 97.8042C111.38 97.7806 111.361 97.7521 111.349 97.7205C111.337 97.6889 111.332 97.655 111.335 97.6213C111.337 97.5875 111.346 97.5547 111.363 97.5251C111.39 97.4639 111.438 97.4148 111.499 97.3868C111.56 97.3588 111.629 97.3539 111.693 97.3731C111.744 97.3981 113.065 97.9571 114.613 100.775C115.471 102.114 116.001 103.637 116.162 105.219C116.166 105.255 116.163 105.291 116.152 105.325C116.141 105.359 116.123 105.391 116.099 105.417C116.075 105.444 116.045 105.465 116.012 105.479C115.979 105.493 115.944 105.499 115.908 105.498C115.874 105.5 115.84 105.495 115.808 105.483C115.776 105.471 115.748 105.452 115.724 105.428C115.7 105.404 115.681 105.375 115.669 105.344C115.657 105.312 115.652 105.278 115.654 105.244V105.244Z" fill="#1F1F39"/>
<path d="M170.173 205.944C169.234 202.744 167.862 197.794 166.542 192.284C164.024 181.746 156.965 162.551 156.889 162.348C156.867 162.284 156.871 162.214 156.899 162.153C156.927 162.091 156.978 162.043 157.041 162.018C157.105 161.996 157.176 161.999 157.238 162.027C157.299 162.056 157.348 162.107 157.373 162.17C157.449 162.37 164.508 181.594 167.021 192.156C168.341 197.666 169.712 202.617 170.626 205.791C170.635 205.822 170.637 205.855 170.633 205.888C170.629 205.92 170.618 205.951 170.601 205.979C170.585 206.007 170.562 206.032 170.536 206.051C170.51 206.07 170.48 206.084 170.448 206.091C170.473 206.091 170.448 206.116 170.423 206.116C170.37 206.112 170.319 206.093 170.275 206.063C170.231 206.033 170.196 205.992 170.173 205.944V205.944Z" fill="#1F1F39"/>
<path d="M96.7381 43.672C96.7214 43.8409 96.7214 44.0111 96.7381 44.18V43.672Z" fill="#EAEAFF"/>
<path d="M90.1198 55.5571C90.0229 55.5569 89.9261 55.5479 89.8308 55.5301H89.4288C89.2549 55.5319 89.0825 55.4991 88.9215 55.4334C88.7605 55.3677 88.6142 55.2706 88.4913 55.1476C88.3683 55.0247 88.2711 54.8784 88.2055 54.7174C88.1398 54.5564 88.1069 54.3839 88.1088 54.2101V45.0431H80.2598C79.5726 45.0442 78.892 44.9098 78.2568 44.6474C77.6217 44.385 77.0446 43.9998 76.5587 43.5139C76.0727 43.0281 75.6874 42.451 75.4249 41.816C75.1624 41.1809 75.0278 40.5002 75.0288 39.8131V24.6041C75.0278 23.9168 75.1623 23.2361 75.4249 22.601C75.6874 21.9659 76.0726 21.3888 76.5586 20.9028C77.0445 20.4169 77.6216 20.0316 78.2568 19.7691C78.8919 19.5066 79.5726 19.372 80.2598 19.3731H114.229C115.618 19.3744 116.95 19.9251 117.935 20.9051C118.92 21.8851 119.477 23.2148 119.485 24.6041V39.8381C119.486 40.5252 119.351 41.2058 119.088 41.8408C118.826 42.4758 118.441 43.0528 117.955 43.5386C117.469 44.0245 116.892 44.4097 116.257 44.6721C115.622 44.9346 114.941 45.0691 114.254 45.0681H101.791L91.0288 55.1991C90.909 55.3165 90.7668 55.4087 90.6106 55.4702C90.4545 55.5317 90.2876 55.5612 90.1198 55.5571ZM88.3548 24.5911C88.102 24.5889 87.8492 24.6016 87.5978 24.6291C87.3634 25.2791 87.2578 25.9686 87.2868 26.6591C87.356 28.6211 87.8981 30.5374 88.8668 32.2451C90.6167 35.2789 93.284 37.6794 96.4848 39.1011C101.717 38.3401 105.279 36.5781 107.073 33.8631C108.137 32.2688 108.53 30.319 108.165 28.4371C107.613 28.2947 107.045 28.2274 106.476 28.2371C104.615 28.254 102.808 28.8573 101.31 29.9611C98.0288 32.2951 97.3558 34.3041 97.2458 35.2931C97.1477 32.5621 96.2663 29.917 94.7068 27.6731C93.9735 26.6868 93.0134 25.8918 91.9077 25.3553C90.802 24.8189 89.5833 24.5567 88.3548 24.5911V24.5911Z" fill="white"/>
<path d="M101.562 34.531C104.609 31.992 106.894 29.707 106.894 29.707C105.446 30.3931 104.083 31.2451 102.832 32.246C100.583 34.2252 98.463 36.3455 96.4839 38.594C96.4839 38.594 98.5149 37.07 101.562 34.531Z" fill="white"/>
<path d="M92.1679 32.246C93.3135 34.5471 94.7654 36.6825 96.4839 38.594C96.4839 38.594 95.2139 35.801 93.6909 32.754C92.5398 30.5945 91.1793 28.5534 89.6289 26.66C89.6289 26.66 89.8829 27.93 92.1679 32.246Z" fill="white"/>
<path d="M203.039 96.918C202.873 96.921 202.708 96.8909 202.553 96.8296C202.399 96.7684 202.258 96.6771 202.139 96.561L191.372 86.43H178.903C178.216 86.4311 177.535 86.2965 176.9 86.034C176.265 85.7715 175.688 85.3862 175.202 84.9002C174.716 84.4143 174.33 83.8372 174.068 83.2021C173.805 82.5669 173.671 81.8863 173.672 81.199V65.991C173.671 65.3038 173.805 64.6231 174.068 63.988C174.33 63.3528 174.716 62.7757 175.202 62.2898C175.688 61.8038 176.265 61.4186 176.9 61.1561C177.535 60.8935 178.216 60.759 178.903 60.76H212.872C214.256 60.7599 215.585 61.306 216.569 62.2796C217.553 63.2532 218.113 64.5758 218.128 65.96V81.174C218.129 81.8612 217.994 82.5419 217.732 83.1769C217.469 83.812 217.084 84.389 216.598 84.8749C216.112 85.3609 215.535 85.7461 214.9 86.0087C214.265 86.2713 213.584 86.4059 212.897 86.405H205.055V95.57C205.057 95.7439 205.024 95.9164 204.958 96.0774C204.893 96.2384 204.795 96.3846 204.672 96.5076C204.549 96.6305 204.403 96.7277 204.242 96.7934C204.081 96.859 203.909 96.8919 203.735 96.89H203.328C203.233 96.9083 203.136 96.9177 203.039 96.918V96.918ZM202.195 66.724C202.088 66.7242 201.982 66.7425 201.881 66.778L197.107 68.403C196.93 68.4682 196.777 68.5857 196.668 68.7398C196.559 68.8939 196.5 69.0774 196.498 69.266V79.854C196.494 79.9064 196.503 79.959 196.524 80.007C196.554 80.0944 196.611 80.1701 196.687 80.2239C196.762 80.2776 196.852 80.3066 196.945 80.307C196.991 80.3071 197.038 80.2997 197.082 80.285L202.49 78.431C202.683 78.3642 202.849 78.2366 202.964 78.0673C203.078 77.898 203.135 77.6961 203.125 77.492V67.667C203.12 67.5671 203.104 67.468 203.076 67.372V67.362C203.017 67.1754 202.899 67.0127 202.74 66.8979C202.582 66.7831 202.391 66.7221 202.195 66.724V66.724ZM189.595 66.724C189.343 66.73 189.104 66.8344 188.928 67.0148C188.752 67.1952 188.654 67.4372 188.655 67.689V77.515C188.654 77.711 188.715 77.9023 188.829 78.0617C188.943 78.2211 189.104 78.3406 189.29 78.403L194.695 80.26C194.734 80.2802 194.778 80.2889 194.822 80.285C194.881 80.288 194.939 80.279 194.994 80.2587C195.05 80.2384 195.1 80.2071 195.143 80.1667C195.185 80.1263 195.22 80.0777 195.243 80.0238C195.266 79.9699 195.279 79.9118 195.279 79.853V69.266C195.277 69.0776 195.218 68.8943 195.109 68.7402C195.001 68.5861 194.848 68.4686 194.672 68.403L189.896 66.777C189.797 66.7481 189.695 66.7313 189.592 66.727L189.595 66.724Z" fill="white"/>
<path d="M143.33 107.91C140.596 107.91 138.379 106.546 138.379 104.863C138.379 103.18 140.596 101.816 143.33 101.816C146.064 101.816 148.279 103.18 148.279 104.863C148.279 106.546 146.065 107.91 143.33 107.91Z" fill="#F9ACC0"/>
<path d="M115.984 102.705C116.078 104.256 116.273 105.8 116.568 107.326C117.483 107.717 118.468 107.916 119.463 107.91C122.205 107.91 124.414 106.539 124.414 104.863C124.414 103.187 122.205 101.816 119.463 101.816C118.243 101.785 117.039 102.093 115.984 102.705V102.705Z" fill="#F9ACC0"/>
<path d="M148.764 110.906C148.778 110.84 148.787 110.773 148.789 110.706C149.904 111.04 151.055 111.236 152.217 111.29C152.192 111.112 152.141 110.935 152.09 110.706C151.075 107.656 154.375 101.816 154.375 101.816C154.375 101.816 150.821 102.578 149.297 107.656C148.969 108.709 148.79 109.803 148.764 110.906V110.906Z" fill="#F9ACC0"/>
<path d="M148.84 108.52C148.808 108.509 148.779 108.491 148.754 108.468C148.729 108.445 148.709 108.418 148.695 108.387C148.681 108.356 148.673 108.323 148.672 108.289C148.67 108.255 148.676 108.222 148.688 108.19C149.269 106.713 150.046 105.321 150.998 104.051C151.994 102.546 153.335 101.302 154.909 100.42C154.967 100.395 155.032 100.391 155.092 100.41C155.153 100.428 155.205 100.467 155.239 100.52C155.264 100.578 155.268 100.643 155.25 100.703C155.231 100.764 155.192 100.816 155.139 100.85C153.648 101.704 152.378 102.896 151.43 104.33C150.522 105.564 149.764 106.903 149.172 108.316C149.16 108.376 149.129 108.431 149.083 108.472C149.037 108.513 148.979 108.539 148.918 108.545C148.904 108.547 148.89 108.546 148.876 108.542C148.863 108.537 148.85 108.53 148.84 108.52V108.52Z" fill="#1F1F39"/>
<path d="M85.592 174.18C85.592 174.18 82.52 185.885 75.41 195.28C70.484 201.805 61.775 205.512 56.875 207.162L78.787 204.928L85.592 174.18Z" fill="#224BF4"/>
<path d="M78.9399 205.157C78.8765 205.142 78.8198 205.106 78.7785 205.055C78.7372 205.005 78.7134 204.942 78.7109 204.877C78.7109 204.801 79.7519 196.65 81.5039 188.856C83.2559 181.062 87.3179 167.147 87.3439 166.995C87.365 166.933 87.4072 166.881 87.463 166.848C87.5188 166.814 87.5847 166.802 87.6489 166.812C87.7086 166.834 87.7589 166.876 87.7913 166.93C87.8238 166.985 87.8363 167.049 87.8269 167.112C87.7749 167.249 83.7379 181.163 81.9859 188.932C80.2339 196.701 79.2189 204.827 79.1929 204.903C79.1957 204.935 79.1918 204.967 79.1816 204.998C79.1714 205.028 79.1551 205.056 79.1336 205.08C79.1121 205.104 79.086 205.123 79.0568 205.136C79.0276 205.149 78.996 205.156 78.9639 205.157H78.9399Z" fill="#1F1F39"/>
</svg>
