<svg width="130" height="130" viewBox="0 0 130 130" fill="none" xmlns="http://www.w3.org/2000/svg">
<path d="M129 1L1 129" stroke="#87C0F4" stroke-width="1.266" stroke-miterlimit="10" stroke-dasharray="3.78 3.78"/>
<path d="M64.7277 126.44C52.5222 126.44 40.5908 122.821 30.4423 116.04C20.2938 109.259 12.384 99.6206 7.7132 88.3442C3.04236 77.0678 1.82026 64.6595 4.20143 52.6886C6.5826 40.7176 12.4601 29.7216 21.0907 21.091C29.7213 12.4605 40.7173 6.58295 52.6882 4.20178C64.6592 1.82061 77.0674 3.04272 88.3438 7.71355C99.6202 12.3844 109.258 20.2942 116.039 30.4427C122.82 40.5911 126.44 52.5225 126.44 64.728C126.44 81.095 119.938 96.7917 108.365 108.365C96.7914 119.938 81.0947 126.44 64.7277 126.44V126.44Z" fill="#1F1F39"/>
<path d="M64.7277 126.44C52.5222 126.44 40.5908 122.821 30.4423 116.04C20.2938 109.259 12.384 99.6206 7.7132 88.3442C3.04236 77.0678 1.82026 64.6595 4.20143 52.6886C6.5826 40.7176 12.4601 29.7216 21.0907 21.091C29.7213 12.4604 40.7173 6.58295 52.6882 4.20177C64.6592 1.8206 77.0674 3.04271 88.3438 7.71354C99.6202 12.3844 109.258 20.2942 116.039 30.4426C122.82 40.5911 126.44 52.5225 126.44 64.728C126.44 81.095 119.938 96.7917 108.365 108.365C96.7914 119.938 81.0947 126.44 64.7277 126.44V126.44Z" fill="#C4C4C4"/>
<path d="M25.1862 31.404C19.4692 31.433 17.5862 37.641 23.1702 43.498C27.0048 47.3905 31.2183 50.8905 35.7482 53.946C35.7482 53.946 31.5692 69.958 37.7062 80.764C43.8432 91.57 53.1262 98.585 64.7532 103.234C71.2226 105.922 78.0159 107.753 84.9602 108.68L107.232 123.704L129.976 99.04C129.976 99.04 103.804 71.233 97.9402 61.94C92.0762 52.647 53.2442 33.151 40.0122 38.021C40.0122 38.021 30.9042 31.375 25.1862 31.404Z" fill="#F9D2DD"/>
<path d="M46.9918 61.593L38.0528 37.193L32.4668 51.693L46.9918 61.593Z" fill="#F9ACC0"/>
<path d="M92.7915 87.308C92.0275 86.9 90.5665 85.908 89.4435 85.134C89.4264 73.3524 87.3669 61.663 83.3565 50.585C82.7752 50.2517 82.1849 49.9183 81.5855 49.585L74.0195 50.65L80.5595 107.978C81.8095 108.226 82.8245 108.393 83.5595 108.5C84.4124 107.382 85.1495 106.181 85.7595 104.914L85.2045 108.766L93.0045 114.028C91.4312 109.15 91.0503 103.966 91.8935 98.911C93.0605 92.343 99.5935 89.855 99.5935 89.855C97.2093 89.3589 94.9152 88.4999 92.7915 87.308V87.308Z" fill="#F9ACC0"/>
<path d="M43.5372 101.492C42.1705 101.495 40.8583 100.957 39.887 99.9956C38.9157 99.0343 38.3642 97.7276 38.3532 96.361L37.9942 25.794C37.9915 24.4276 38.5295 23.1155 39.4909 22.1445C40.4522 21.1734 41.7587 20.6221 43.1252 20.611L79.8942 20.424C81.2608 20.421 82.573 20.959 83.5443 21.9204C84.5156 22.8818 85.0671 24.1884 85.0782 25.555L85.4352 96.124C85.4378 97.4905 84.8998 98.8027 83.9385 99.7739C82.9772 100.745 81.6707 101.297 80.3042 101.308L43.5372 101.492Z" fill="#3D5CFF"/>
<path d="M71.4082 22.202L71.4172 24.47C71.4172 25.0042 71.206 25.5168 70.8297 25.8959C70.4534 26.275 69.9424 26.49 69.4082 26.494L53.4342 26.576C52.9002 26.5765 52.3876 26.366 52.0081 25.9903C51.6286 25.6145 51.413 25.104 51.4082 24.57L51.3972 22.304L45.1362 22.336C43.8769 22.346 42.6727 22.8541 41.7868 23.7492C40.9009 24.6443 40.4053 25.8536 40.4082 27.113L40.7522 94.532C40.7623 95.7913 41.2703 96.9955 42.1654 97.8814C43.0605 98.7673 44.2698 99.2629 45.5292 99.26L78.0622 99.095C79.3215 99.085 80.5257 98.5769 81.4116 97.6818C82.2975 96.7867 82.7932 95.5774 82.7902 94.318L82.4452 26.899C82.4344 25.6396 81.926 24.4357 81.0309 23.5498C80.1358 22.6638 78.9266 22.1678 77.6672 22.17L71.4082 22.202Z" fill="white"/>
<path d="M45.152 44.003C44.443 44.003 43.86 43.233 43.852 42.28L43.832 35.695C43.832 34.742 44.405 33.959 45.115 33.955L49.567 33.924C50.276 33.924 50.859 34.694 50.867 35.647L50.892 42.232C50.892 43.183 50.319 43.966 49.609 43.972L45.152 44.003Z" fill="#EAEAFF"/>
<path d="M54.2223 44.003C53.5133 44.003 52.9303 43.233 52.9223 42.28L52.9023 35.695C52.9023 34.742 53.4753 33.959 54.1853 33.955L58.6373 33.924C59.3463 33.924 59.9293 34.694 59.9373 35.647L59.9623 42.232C59.9623 43.183 59.3893 43.966 58.6793 43.972L54.2223 44.003Z" fill="#EAEAFF"/>
<path d="M63.2946 44.003C62.5856 44.003 62.0026 43.233 61.9946 42.28L61.9746 35.695C61.9746 34.742 62.5476 33.959 63.2576 33.955L67.7096 33.924C68.4186 33.924 69.0016 34.694 69.0096 35.647L69.0346 42.232C69.0346 43.183 68.4616 43.966 67.7516 43.972L63.2946 44.003Z" fill="#EAEAFF"/>
<path d="M72.3649 44.003C71.6559 44.003 71.0729 43.233 71.0649 42.28L71.0449 35.695C71.0449 34.742 71.6179 33.959 72.3279 33.955L76.7799 33.924C77.4889 33.924 78.0719 34.694 78.0799 35.647L78.1049 42.232C78.1049 43.183 77.5319 43.966 76.8219 43.972L72.3649 44.003Z" fill="#EAEAFF"/>
<path d="M40.7392 92.292L40.5332 51.68L40.7192 92.295L40.7392 92.292Z" fill="#EAEAFF"/>
<path d="M49.4023 77.058C50.1903 76.2446 50.8064 75.2809 51.2139 74.2243C51.6214 73.1677 51.812 72.0398 51.7743 70.908C51.5663 67.191 47.3043 64.288 47.3043 64.288C48.3918 63.2475 49.1872 61.9398 49.611 60.4955C50.0348 59.0513 50.0721 57.5212 49.7193 56.058C48.7483 52.113 43.4093 51.122 40.5293 50.766V51.681L40.7403 92.293C43.3103 91.951 46.2403 89.954 48.4313 86.379C50.9843 82.211 49.4023 77.058 49.4023 77.058Z" fill="#EAEAFF"/>
<path d="M84.9459 59.067L82.5879 54.913L82.6939 75.765C83.5029 77.642 84.1179 78.845 84.1179 78.845L84.9459 59.067Z" fill="#EAEAFF"/>
<path d="M82.6933 75.765L82.5873 54.913L78.2523 47.273C78.2523 47.273 77.9613 59.218 79.3353 65.692C80.135 69.1479 81.2593 72.5205 82.6933 75.765V75.765Z" fill="#EAEAFF"/>
<path d="M85.4017 77.974C84.7347 75.582 85.7017 71.192 84.8117 69.653C82.1997 65.146 79.5017 59.965 78.4737 56.253C76.2467 48.189 76.8787 40.114 81.4127 38.916C85.9467 37.718 90.3627 46.437 91.8947 49.792C93.4267 53.147 100.389 66.732 100.389 66.732L97.8967 87.132C97.8967 87.132 88.9287 90.613 85.4017 77.974Z" fill="#F9D2DD"/>
<path d="M47.8529 53.212C51.2349 56.895 48.9039 61.447 46.8929 62.801C45.8796 63.5524 44.7076 64.0617 43.4669 64.29C43.4669 64.29 49.0109 65.828 49.6229 70.523C49.8973 71.915 49.6134 73.3591 48.8325 74.5437C48.0517 75.7283 46.8364 76.5584 45.4489 76.855C46.3677 77.4813 47.0832 78.3627 47.5073 79.3906C47.9315 80.4185 48.0457 81.548 47.8359 82.64C47.0129 86.34 42.4809 87.711 38.4439 87.565C34.4069 87.419 25.3179 85.611 27.0639 65.256C28.5739 47.662 44.4719 49.529 47.8529 53.212Z" fill="#F9D2DD"/>
<path d="M39.0351 60.686C39.0351 60.686 45.6691 61.661 46.3221 57.786C47.3961 51.411 38.9961 53.127 38.9961 53.127L39.0351 60.686Z" fill="#F9E1E8"/>
<path d="M39.1972 74.319C39.1972 74.319 45.8312 75.294 46.4842 71.419C47.5582 65.042 39.1582 66.761 39.1582 66.761L39.1972 74.319Z" fill="#F9E1E8"/>
<path d="M39.1453 84.928C39.1453 84.928 44.7203 85.748 45.2703 82.495C46.1753 77.134 39.1133 78.577 39.1133 78.577L39.1453 84.928Z" fill="#F9E1E8"/>
<path d="M99.5919 89.856C95.3719 89.3017 91.4724 87.3082 88.5519 84.212C83.6629 79.026 85.3129 72.026 85.3129 72.026" stroke="#1F1F39" stroke-width="0.501" stroke-miterlimit="10"/>
<path d="M36.0684 76.738L45.6164 76.812C46.79 76.5291 47.8327 75.8557 48.5733 74.9023C49.3139 73.949 49.7085 72.7722 49.6924 71.565C49.4783 72.5945 48.9562 73.5345 48.1953 74.2602C47.4344 74.9859 46.4708 75.4629 45.4324 75.628C43.0154 76.189 36.0684 76.738 36.0684 76.738Z" fill="#F9ACC0"/>
<path d="M38.3037 86.357C35.1768 86.0222 32.2948 84.5089 30.2437 82.125C29.2957 80.9059 28.4647 79.6001 27.7617 78.225C29.9517 86.478 35.5217 87.455 38.4437 87.563C42.2977 87.703 46.6027 86.463 47.6987 83.124C47.397 83.6455 46.9933 84.1009 46.5117 84.463C44.0955 86.0678 41.1788 86.7408 38.3037 86.357V86.357Z" fill="#F9ACC0"/>
<path d="M46.8934 62.8C48.6934 61.59 50.7344 57.835 48.7504 54.425C49.2328 55.3639 49.3765 56.4404 49.1574 57.473C48.3474 61.087 45.9154 62.341 42.5934 63.005C40.1455 63.4534 37.6753 63.7692 35.1934 63.951L43.4684 64.288C44.7089 64.0608 45.8807 63.5517 46.8934 62.8Z" fill="#F9ACC0"/>
<path d="M35.1133 64.244L44.5873 64.333" stroke="#1F1F39" stroke-width="0.501" stroke-miterlimit="10" stroke-linecap="round"/>
<path d="M36.0762 76.706L45.5502 76.794" stroke="#1F1F39" stroke-width="0.501" stroke-miterlimit="10" stroke-linecap="round"/>
<path d="M90.1953 26.748C90.2479 28.5789 90.7478 30.369 91.6514 31.9622C92.5551 33.5554 93.8349 34.9033 95.3793 35.888C95.4603 37.56 95.1923 39.869 92.8103 40.933C92.7045 40.9717 92.6129 41.0414 92.5473 41.133C92.4727 41.2369 92.4382 41.3643 92.4501 41.4917C92.4621 41.619 92.5197 41.7378 92.6123 41.826C92.7199 41.9291 92.8634 41.9861 93.0123 41.985H93.0523H93.0613C95.5723 41.8673 97.9474 40.81 99.7153 39.023C99.966 38.7817 100.27 38.6026 100.603 38.5003C100.935 38.398 101.287 38.3753 101.63 38.434C102.679 38.626 103.743 38.722 104.809 38.721C112.881 38.721 119.423 33.36 119.423 26.747C119.423 20.134 112.881 14.774 104.809 14.774C96.7373 14.774 90.1953 20.135 90.1953 26.748Z" fill="#3D5CFF"/>
</svg>
